<svg xmlns="http://www.w3.org/2000/svg" viewBox="0 0 1224 792"><defs><style>.cls-1,.cls-2{fill:#231f20;}.cls-1,.cls-3{fill-rule:evenodd;}.cls-3,.cls-4{fill:#fff;}</style></defs><title>Artboard 1</title><g id="Layer_1_copy" data-name="Layer 1 copy"><path class="cls-1" d="M702.47,357.59C725.21,338.76,752.92,327,785.16,327c31.35,0,52.25,17.77,65.84,41.28l16.72-12c-16.2-26.13-41.8-48.6-81-48.6a153.87,153.87,0,0,0-68.67,15.73Z"/><path class="cls-1" d="M609.46,561.56c9.91,62,49.45,103,119.26,103,37.63,0,67.93-13.59,92-34.49l28.74-140H748.58l-4.18,18.81h79.43l-22,110.26c-15.68,14.63-39.71,26.12-70.54,26.12-73.68,0-101.9-53.82-101.9-119.66q0-4.07.16-8.19Z"/><path class="cls-2" d="M648.48,390.77,617.84,141.44H593.28L403.59,485.8h25.09L493,366.14H624.11l7.07,62.26Zm-145.6-42.92,35.53-66.37c21.43-39.71,41.28-75.77,61.66-117.57h2.09c3.66,40.76,8.36,79.43,12,117.57L622,347.85Z"/><path class="cls-2" d="M23.62,164.12H11.49L5.54,175.19H3.22l17.55-31.86H23L27,175.19H24.88Zm-.19-1.69-.72-6.14c-.34-3.53-.78-7.11-1.12-10.88H21.4c-1.89,3.87-3.72,7.2-5.7,10.88l-3.29,6.14Z"/><path class="cls-2" d="M59.93,152h1.65L61,155.66h.2c2.61-2.42,5.46-4.25,7.73-4.25,3.87,0,5.22,2.22,5.37,4.83,3.19-3.09,6.19-4.83,8.46-4.83,3.87,0,5.46,2.27,5.46,5.65a12.59,12.59,0,0,1-.38,3.14l-3,15h-2l3-14.7a13.27,13.27,0,0,0,.39-3c0-2.85-1.21-4.31-4-4.31-1.5,0-4.5,1.46-7.74,4.89l-3.43,17.11h-2l3-14.7a13.27,13.27,0,0,0,.39-3c0-2.85-1.21-4.31-4-4.31-1.5,0-4.49,1.46-7.68,4.89l-3.44,17.11h-2Z"/><path class="cls-2" d="M130,151.41a6.7,6.7,0,0,1,6,3.77h.14l.92-3.19h1.65l-4.65,23.2H132.4l.54-3.67h-.2c-2.37,2.46-5.37,4.25-8.56,4.25-4.06,0-6.76-3-6.76-8.36C117.42,158.46,123.6,151.41,130,151.41ZM133.32,169l2.42-11.65c-1.69-3-3.58-4.2-5.75-4.2-5.52,0-10.54,6.91-10.54,13.87,0,4.69,2,7,5.17,7C127.62,174,130.57,172.19,133.32,169Z"/><path class="cls-2" d="M171.81,153.73h-3.63l.29-1.55,3.77-.19,1.6-6.63h1.69L174.17,152h6.29l-.39,1.74h-6.28L170.65,169a10.36,10.36,0,0,0-.2,1.83c0,2.13.78,3.24,3.29,3.24a6.11,6.11,0,0,0,2.8-.82l.54,1.5a8.14,8.14,0,0,1-3.73,1.06c-3.62,0-4.88-2.13-4.88-4.59a19.27,19.27,0,0,1,.19-2.32Z"/><path class="cls-2" d="M203.28,174l17.31-20.25H208.74l.39-1.74h14.41l-.2,1.2L206,173.45h13.63l-.39,1.74H203.09Z"/><path class="cls-2" d="M255.54,140.43h2l-2.61,12.86-.63,2.42h.2c3-2.52,5.6-4.3,8.41-4.3,4,0,5.51,2.27,5.51,5.65a12.64,12.64,0,0,1-.39,3.14l-3,15h-2l3-14.7a17,17,0,0,0,.39-3c0-2.85-1.21-4.31-4.16-4.31-2,0-4.74,1.46-8.22,4.89l-3.43,17.11h-2Z"/><path class="cls-2" d="M313.51,175.19h-1.65l.49-3.77h-.2c-2.8,2.42-5.41,4.35-8.22,4.35-4,0-5.55-2.32-5.55-5.65a12.46,12.46,0,0,1,.38-3.15l3-15h2l-2.95,14.69a13.3,13.3,0,0,0-.38,3c0,2.85,1.2,4.3,4.1,4.3,2,0,4.79-1.5,8.22-4.88L316.17,152h2Z"/><path class="cls-2" d="M353.3,140.43h2L350.2,166h.15l13.73-14h2.41l-9.08,9.42,5.6,13.78h-2.08l-5-12.47-6.34,6.43-1.21,6h-2Z"/><path class="cls-2" d="M404.35,151.41a6.68,6.68,0,0,1,6,3.77h.15l.92-3.19h1.64l-4.64,23.2h-1.69l.53-3.67h-.19c-2.37,2.46-5.37,4.25-8.56,4.25-4.06,0-6.77-3-6.77-8.36C391.73,158.46,397.92,151.41,404.35,151.41ZM407.64,169l2.41-11.65c-1.69-3-3.57-4.2-5.75-4.2-5.51,0-10.54,6.91-10.54,13.87,0,4.69,2,7,5.17,7C401.93,174,404.88,172.19,407.64,169Z"/><path class="cls-2" d="M439,174l17.3-20.25H444.43l.39-1.74h14.4l-.19,1.2-17.36,20.26h13.64l-.39,1.74H438.77Z"/><path class="cls-2" d="M496,151.41c5,0,7,3.43,7,8.21a14.06,14.06,0,0,1-.63,4.07H486.1c-1.25,7.3,2.32,10.39,6.92,10.39a10.34,10.34,0,0,0,5.8-2.27l.92,1.45a12.35,12.35,0,0,1-7,2.51c-5.37,0-8.85-3.33-8.85-9.57C483.88,157.4,490,151.41,496,151.41Zm4.83,10.68a12.91,12.91,0,0,0,.29-2.76c0-3.14-1.35-6.23-5.32-6.23s-8.12,3.72-9.38,9Z"/><path class="cls-2" d="M905.93,596.19a8.6,8.6,0,0,1,7.49,4.49l-1.54,1.11a6.86,6.86,0,0,0-6.09-3.82c-9.19,0-14.41,10.3-14.41,18.38,0,6.09,2.61,11.07,9.43,11.07a9.46,9.46,0,0,0,6.52-2.42l2-10.2H902l.38-1.74h9.33l-2.66,13a12.58,12.58,0,0,1-8.51,3.2c-7.54,0-11.26-5.18-11.26-12.57C889.3,607,895.3,596.19,905.93,596.19Z"/><path class="cls-2" d="M945.09,605.42h1.65l-.73,4.4h.19c1.94-2.76,4.31-5,7.3-5a5.78,5.78,0,0,1,2.08.39l-.77,1.88a4.24,4.24,0,0,0-1.84-.39c-2.46,0-5.41,2.37-7.49,6.53l-3.05,15.38h-2Z"/><path class="cls-2" d="M992.23,604.84a6.69,6.69,0,0,1,6,3.77h.15l.92-3.19h1.64l-4.64,23.21H994.6l.53-3.68h-.19c-2.37,2.47-5.37,4.26-8.56,4.26-4.06,0-6.77-3-6.77-8.37C979.61,611.9,985.8,604.84,992.23,604.84Zm3.29,17.6,2.41-11.65c-1.69-3-3.57-4.21-5.75-4.21-5.51,0-10.54,6.91-10.54,13.88,0,4.68,2,7,5.17,7C989.81,627.47,992.76,625.63,995.52,622.44Z"/><path class="cls-2" d="M1030.57,630.7l-1.6,8.42h-2l6.77-33.7h1.64l-.48,3.29h.19c2.47-2,5.32-3.87,8.51-3.87,4.11,0,6.77,2.95,6.77,8.36,0,8.95-6.19,16-12.57,16a7.28,7.28,0,0,1-6.14-3.73h-.1Zm4.06-19.77-2.52,12.52c1.7,2.9,3.53,4,5.71,4,5.51,0,10.59-6.92,10.59-13.93,0-4.64-2-7-5.22-7C1040.62,606.58,1037.24,608.37,1034.63,610.93Z"/><path class="cls-2" d="M1085.54,593.87h2l-2.61,12.85-.63,2.42h.19c3-2.51,5.61-4.3,8.41-4.3,4,0,5.52,2.27,5.52,5.66a12.69,12.69,0,0,1-.39,3.14l-3,15h-2l3-14.7a16.91,16.91,0,0,0,.38-3c0-2.85-1.2-4.3-4.15-4.3-2,0-4.74,1.45-8.22,4.88l-3.43,17.12h-2Z"/><path class="cls-2" d="M1131.8,605.42h2l-4.64,23.21h-2Zm.63-7.2a2.11,2.11,0,0,1,2-2.18,1.57,1.57,0,0,1,1.6,1.64,2.1,2.1,0,0,1-2,2.13A1.58,1.58,0,0,1,1132.43,598.22Z"/><path class="cls-2" d="M1174.54,604.84a7.29,7.29,0,0,1,5.85,2.8l-1.26,1.36a5.48,5.48,0,0,0-4.73-2.42c-5.22,0-10.35,6-10.35,13.15,0,5,2.13,7.74,6.43,7.74a9.8,9.8,0,0,0,6-2.42l1,1.45a11.81,11.81,0,0,1-7.25,2.71c-5,0-8.22-3.34-8.22-9.19C1162,611,1168.31,604.84,1174.54,604.84Z"/><path class="cls-2" d="M1206.3,623.84a7.83,7.83,0,0,0,6.58,3.67c3.19,0,5.94-2.22,5.94-4.88,0-1.84-.82-3-4.44-5-4.16-2.22-5.66-3.87-5.66-6.28,0-3.92,3.38-6.53,7.3-6.53a8.74,8.74,0,0,1,6.43,2.8l-1.3,1.26a7,7,0,0,0-5.18-2.37c-3,0-5.31,2.08-5.31,4.55,0,2.22,2,3.38,4.3,4.64,5,2.7,5.8,4.49,5.8,6.57,0,4.26-3.48,6.92-8.12,6.92a9.84,9.84,0,0,1-7.74-4.31Z"/></g><g id="Layer_1_copy_2" data-name="Layer 1 copy 2"><path class="cls-3" d="M699.25,354.37c22.74-18.84,50.45-30.58,82.68-30.58,31.36,0,52.26,17.77,65.84,41.28l16.73-12c-16.2-26.12-41.81-48.59-81-48.59a153.77,153.77,0,0,0-68.67,15.73Z"/><path class="cls-3" d="M606.24,558.33c9.91,62,49.44,103,119.26,103,37.62,0,67.93-13.58,92-34.48l28.74-140H745.36l-4.18,18.82H820.6L798.66,615.89C783,630.52,758.94,642,728.11,642c-73.68,0-101.89-53.82-101.89-119.66q0-4.07.16-8.19Z"/><path class="cls-4" d="M645.26,387.55,614.61,138.22H590.06L400.37,482.58h25.08l64.28-119.67H620.89L628,425.17Zm-145.6-42.93,35.53-66.36c21.42-39.71,41.28-75.77,61.66-117.57h2.09c3.66,40.76,8.36,79.42,12,117.57l7.84,66.36Z"/><path class="cls-4" d="M20.4,160.9H8.27L2.32,172H0l17.55-31.86h2.27L23.74,172H21.66Zm-.19-1.69-.73-6.14c-.34-3.53-.77-7.11-1.11-10.88h-.19c-1.89,3.87-3.72,7.2-5.71,10.88l-3.28,6.14Z"/><path class="cls-4" d="M56.71,148.76h1.64l-.53,3.68H58c2.61-2.42,5.47-4.26,7.74-4.26,3.87,0,5.22,2.23,5.37,4.84,3.19-3.1,6.18-4.84,8.46-4.84,3.86,0,5.46,2.27,5.46,5.66a12.64,12.64,0,0,1-.39,3.14l-3,15h-2l3-14.7a13.34,13.34,0,0,0,.39-3c0-2.85-1.21-4.3-4-4.3-1.5,0-4.5,1.45-7.74,4.88L67.83,172h-2l3-14.7a13.23,13.23,0,0,0,.38-3c0-2.85-1.21-4.3-4-4.3-1.5,0-4.5,1.45-7.69,4.88L54.05,172H52Z"/><path class="cls-4" d="M126.81,148.18a6.72,6.72,0,0,1,6,3.77H133l.92-3.19h1.64L130.87,172h-1.69l.53-3.68h-.19c-2.37,2.47-5.37,4.26-8.56,4.26-4.06,0-6.77-3-6.77-8.36C114.19,155.24,120.38,148.18,126.81,148.18Zm3.29,17.6,2.42-11.65c-1.7-3-3.58-4.21-5.76-4.21-5.51,0-10.54,6.92-10.54,13.88,0,4.69,2,7,5.18,7C124.39,170.81,127.34,169,130.1,165.78Z"/><path class="cls-4" d="M168.58,150.5H165l.29-1.54,3.77-.2,1.59-6.62h1.7L171,148.76h6.29l-.39,1.74h-6.29l-3.14,15.23a11.43,11.43,0,0,0-.19,1.84c0,2.13.77,3.24,3.29,3.24a6.23,6.23,0,0,0,2.8-.82l.53,1.5a8.1,8.1,0,0,1-3.72,1.06c-3.63,0-4.88-2.13-4.88-4.59a17.43,17.43,0,0,1,.19-2.32Z"/><path class="cls-4" d="M200.06,170.76l17.3-20.26H205.52l.39-1.74h14.4l-.19,1.21-17.36,20.26H216.4L216,172H199.86Z"/><path class="cls-4" d="M252.32,137.21h2l-2.61,12.86-.63,2.42h.19c3-2.52,5.61-4.31,8.42-4.31,4,0,5.51,2.27,5.51,5.66a12.64,12.64,0,0,1-.39,3.14l-3,15h-2l3-14.7a16.91,16.91,0,0,0,.38-3c0-2.85-1.2-4.3-4.15-4.3-2,0-4.74,1.45-8.22,4.88L247.39,172h-2Z"/><path class="cls-4" d="M310.28,172h-1.64l.48-3.77h-.19c-2.8,2.41-5.41,4.35-8.22,4.35-4,0-5.56-2.32-5.56-5.66a12.37,12.37,0,0,1,.39-3.14l3-15h2l-2.95,14.7a13.34,13.34,0,0,0-.39,3c0,2.85,1.21,4.3,4.11,4.3,2,0,4.79-1.5,8.22-4.88l3.43-17.12h2Z"/><path class="cls-4" d="M350.07,137.21h2L347,162.78h.14l13.73-14h2.42l-9.09,9.43L359.79,172h-2.08l-5-12.47-6.33,6.43-1.21,6h-2Z"/><path class="cls-4" d="M401.13,148.18a6.72,6.72,0,0,1,6,3.77h.15l.91-3.19h1.65L405.19,172H403.5l.53-3.68h-.2c-2.36,2.47-5.36,4.26-8.55,4.26-4.06,0-6.77-3-6.77-8.36C388.51,155.24,394.7,148.18,401.13,148.18Zm3.28,17.6,2.42-11.65c-1.69-3-3.58-4.21-5.75-4.21-5.51,0-10.54,6.92-10.54,13.88,0,4.69,2,7,5.17,7C398.71,170.81,401.66,169,404.41,165.78Z"/><path class="cls-4" d="M435.74,170.76l17.31-20.26H441.21l.38-1.74H456l-.19,1.21-17.36,20.26h13.63L451.7,172H435.55Z"/><path class="cls-4" d="M492.74,148.18c5,0,7,3.44,7,8.22a13.65,13.65,0,0,1-.63,4.06H482.88c-1.26,7.3,2.32,10.4,6.91,10.4a10.3,10.3,0,0,0,5.8-2.28l.92,1.45a12.26,12.26,0,0,1-7,2.52c-5.36,0-8.84-3.34-8.84-9.57C480.66,154.18,486.8,148.18,492.74,148.18Zm4.84,10.69a12.91,12.91,0,0,0,.29-2.76c0-3.14-1.36-6.24-5.32-6.24-4.11,0-8.12,3.73-9.38,9Z"/><path class="cls-4" d="M902.71,593a8.62,8.62,0,0,1,7.49,4.5l-1.55,1.11a6.85,6.85,0,0,0-6.09-3.82c-9.18,0-14.4,10.3-14.4,18.37,0,6.09,2.61,11.07,9.42,11.07a9.48,9.48,0,0,0,6.53-2.41l2-10.2h-7.35l.39-1.74h9.33l-2.66,12.95a12.59,12.59,0,0,1-8.51,3.19c-7.54,0-11.26-5.17-11.26-12.57C886.08,603.79,892.07,593,902.71,593Z"/><path class="cls-4" d="M941.87,602.2h1.64l-.72,4.4H943c1.93-2.76,4.3-5,7.3-5a5.75,5.75,0,0,1,2.08.38l-.77,1.89a4.24,4.24,0,0,0-1.84-.39c-2.47,0-5.42,2.37-7.5,6.53l-3,15.37h-2Z"/><path class="cls-4" d="M989,601.62a6.72,6.72,0,0,1,6,3.77h.15l.91-3.19h1.65l-4.64,23.2h-1.7l.54-3.67h-.2c-2.37,2.46-5.36,4.25-8.55,4.25-4.06,0-6.77-3-6.77-8.36C976.39,608.67,982.58,601.62,989,601.62Zm3.28,17.59,2.42-11.65c-1.69-3-3.58-4.2-5.75-4.2-5.51,0-10.54,6.91-10.54,13.87,0,4.69,2,7,5.17,7C986.59,624.24,989.54,622.4,992.29,619.21Z"/><path class="cls-4" d="M1027.34,627.48l-1.59,8.41h-2l6.76-33.69h1.65l-.48,3.28h.19c2.46-2,5.32-3.86,8.51-3.86,4.11,0,6.77,3,6.77,8.36,0,8.94-6.19,16-12.57,16a7.27,7.27,0,0,1-6.14-3.72h-.1Zm4.06-19.77-2.51,12.52c1.69,2.9,3.53,4,5.71,4,5.51,0,10.58-6.91,10.58-13.92,0-4.64-2-7-5.22-7C1037.4,603.36,1034,605.15,1031.4,607.71Z"/><path class="cls-4" d="M1082.31,590.64h2l-2.62,12.86-.62,2.42h.19c3-2.51,5.61-4.3,8.41-4.3,4,0,5.51,2.27,5.51,5.65a12.72,12.72,0,0,1-.38,3.15l-3,15h-2l3-14.69a16.28,16.28,0,0,0,.39-3c0-2.85-1.21-4.3-4.16-4.3-2,0-4.73,1.45-8.22,4.88l-3.43,17.11h-2Z"/><path class="cls-4" d="M1128.58,602.2h2l-4.64,23.2h-2Zm.63-7.21a2.11,2.11,0,0,1,2-2.17,1.57,1.57,0,0,1,1.6,1.64,2.1,2.1,0,0,1-2,2.13A1.59,1.59,0,0,1,1129.21,595Z"/><path class="cls-4" d="M1171.32,601.62a7.29,7.29,0,0,1,5.85,2.8l-1.26,1.35a5.47,5.47,0,0,0-4.74-2.41c-5.22,0-10.34,6-10.34,13.15,0,5,2.12,7.73,6.43,7.73a9.79,9.79,0,0,0,6-2.41l1,1.44A11.84,11.84,0,0,1,1167,626c-5,0-8.21-3.33-8.21-9.18C1158.8,607.8,1165.08,601.62,1171.32,601.62Z"/><path class="cls-4" d="M1203.08,620.62a7.83,7.83,0,0,0,6.58,3.67c3.19,0,5.94-2.22,5.94-4.88,0-1.84-.82-3-4.45-5-4.15-2.23-5.65-3.87-5.65-6.29,0-3.91,3.38-6.52,7.3-6.52a8.76,8.76,0,0,1,6.43,2.8l-1.31,1.26a6.88,6.88,0,0,0-5.17-2.37c-3,0-5.32,2.08-5.32,4.54,0,2.23,2,3.39,4.31,4.64,5,2.71,5.8,4.5,5.8,6.58,0,4.25-3.49,6.91-8.13,6.91a9.82,9.82,0,0,1-7.73-4.3Z"/></g></svg>