<?xml version="1.0" encoding="utf-8"?>
<!-- Generator: Adobe Illustrator 23.0.1, SVG Export Plug-In . SVG Version: 6.00 Build 0)  -->
<svg version="1.1" id="Layer_1" xmlns="http://www.w3.org/2000/svg" xmlns:xlink="http://www.w3.org/1999/xlink" x="0px" y="0px"
	 viewBox="0 0 500 500" style="enable-background:new 0 0 500 500;" xml:space="preserve">
<style type="text/css">
	.st0{enable-background:new    ;}
</style>
<title>misc</title>
<g class="st0">
	<path d="M76.3,153.4h12.6l16.6,100.3l6.6,37.8h1l19.7-37.8l55.4-100.3h12.6l-33.3,166.3h-7.6l23.2-115.9c3-13.6,6.6-30.2,9.6-43.3
		h-1L172,196.2l-57,104.3h-8.6L88.4,196.2l-6-35.8h-1c-2.5,13.6-5,29.7-7.6,43.3L50.6,319.7H43L76.3,153.4z"/>
	<path d="M238.5,199.2h7.1l-24.2,120.5h-7.1L238.5,199.2z M241.6,161.4c0-6,4.5-10.1,9.1-10.1c4,0,7.1,3,7.1,7.6
		c0,5.5-4.5,9.6-9.1,9.6C244.6,168.5,241.6,165.5,241.6,161.4z"/>
	<path d="M257.2,300.5l5.5-4c6.6,10.6,19.2,19.7,35.3,19.7c17.6,0,32.8-12.6,32.8-27.2c0-10.1-3.8-16.9-23.2-27.2
		c-22.7-12.1-30.2-20.2-30.2-32.3c0-20.2,17.1-33.3,36.8-33.3c13.1,0,24.2,5.5,32.3,14.1l-5,5c-6.6-7.1-15.1-12.6-27.7-12.6
		c-16.1,0-29.2,11.6-29.2,25.2c0,12.1,10.6,18.6,22.7,25.2c27.7,15.1,30.7,24.2,30.7,34.3c0,21.7-17.6,35.3-40.8,35.3
		C279.4,322.7,263.7,311.1,257.2,300.5z"/>
	<path d="M365,275.3c0-47.4,32.8-79.1,64-79.1c13.6,0,22.2,5.5,30.2,14.6l-5,5c-7.6-9.1-14.1-13.1-25.7-13.1
		c-28.2,0-56.4,32.8-56.4,71.1c0,27.7,11.6,42.3,35.3,42.3c12.6,0,23.7-6,32.8-13.1l4,5.5c-8.6,6.6-20.7,14.1-37.3,14.1
		C381.2,322.7,365,305.6,365,275.3z"/>
</g>
</svg>
